<svg xmlns="http://www.w3.org/2000/svg" viewBox="0 0 1600 1000" preserveAspectRatio="xMidYMid slice" aria-hidden="true">
  <defs>
  <linearGradient id="silver" gradientUnits="userSpaceOnUse" x1="-200" y1="1100" x2="1800" y2="-100"><stop offset="0%" stop-color="#3f4c64"/><stop offset="18%" stop-color="#7a8ba9"/><stop offset="33%" stop-color="#c9d5e8"/><stop offset="42%" stop-color="#eef3fb"/><stop offset="55%" stop-color="#7f90ae"/><stop offset="72%" stop-color="#4c5a75"/><stop offset="88%" stop-color="#98a8c4"/><stop offset="100%" stop-color="#44516a"/></linearGradient>
  <linearGradient id="silver2" gradientUnits="userSpaceOnUse" x1="1800" y1="900" x2="-200" y2="100"><stop offset="0%" stop-color="#48566f"/><stop offset="26%" stop-color="#aebdd6"/><stop offset="40%" stop-color="#e9f0fa"/><stop offset="58%" stop-color="#7283a3"/><stop offset="80%" stop-color="#a6b5d0"/><stop offset="100%" stop-color="#48566f"/></linearGradient>
  <linearGradient id="gold" gradientUnits="userSpaceOnUse" x1="-100" y1="-100" x2="1700" y2="1100"><stop offset="0%" stop-color="#6b5210"/><stop offset="20%" stop-color="#b8942f"/><stop offset="34%" stop-color="#e8d18a"/><stop offset="44%" stop-color="#f8eec2"/><stop offset="60%" stop-color="#ab8a24"/><stop offset="78%" stop-color="#775c12"/><stop offset="92%" stop-color="#d2b862"/><stop offset="100%" stop-color="#6b5210"/></linearGradient>
  <linearGradient id="gold2" gradientUnits="userSpaceOnUse" x1="1700" y1="0" x2="-100" y2="1000"><stop offset="0%" stop-color="#775c12"/><stop offset="30%" stop-color="#d9c076"/><stop offset="45%" stop-color="#f8eec2"/><stop offset="66%" stop-color="#a5851f"/><stop offset="100%" stop-color="#775c12"/></linearGradient>
  </defs>
  <g stroke="url(#gold2)" fill="none" opacity="0.6" class="flow">
    <path d="M 1035.6 636.0 A 272.0 272.0 0 0 1 564.4 636.0" stroke-width="1.3"/>
    <path d="M 1097.9 672.0 A 344.0 344.0 0 0 1 502.1 672.0" stroke-width="0.7"/>
    <path d="M 1163.7 710.0 A 420.0 420.0 0 0 1 436.3 710.0" stroke-width="1.0"/>
  </g>
  <g stroke="url(#silver2)" fill="none" opacity="0.44" class="flow2">
    <line x1="830.0" y1="-950.3" x2="1507.4" y2="1766.5" stroke-width="0.9"/>
    <line x1="645.7" y1="-904.4" x2="1323.0" y2="1812.4" stroke-width="0.5"/>
    <line x1="461.3" y1="-858.4" x2="1138.7" y2="1858.4" stroke-width="0.7"/>
    <line x1="277.0" y1="-812.4" x2="954.3" y2="1904.4" stroke-width="0.9"/>
    <line x1="92.6" y1="-766.5" x2="770.0" y2="1950.3" stroke-width="0.5"/>
  </g>
  <g stroke="url(#silver)" fill="none" opacity="0.5" class="flow3">
    <path d="M 640 500 A 220 220 0 0 1 960 500 A 220 220 0 0 1 640 500" stroke-width="1.3"/>
  </g>
  <g class="glint" style="animation-delay:1.4s"><circle cx="800.0" cy="138.0" r="3.40" fill="url(#gold)" stroke="none"/><line x1="780.0" y1="138.0" x2="820.0" y2="138.0" stroke="url(#gold)" stroke-width="1.1"/><line x1="800.0" y1="118.0" x2="800.0" y2="158.0" stroke="url(#gold)" stroke-width="1.1"/></g>
  <g class="glint" style="animation-delay:2.8s"><circle cx="158.0" cy="214.0" r="3.20" fill="url(#silver)" stroke="none"/><line x1="140.0" y1="214.0" x2="176.0" y2="214.0" stroke="url(#silver)" stroke-width="1.1"/><line x1="158.0" y1="196.0" x2="158.0" y2="232.0" stroke="url(#silver)" stroke-width="1.1"/></g>
  <g class="glint" style="animation-delay:2.0s"><circle cx="1452.0" cy="792.0" r="3.20" fill="url(#silver)" stroke="none"/><line x1="1434.0" y1="792.0" x2="1470.0" y2="792.0" stroke="url(#silver)" stroke-width="1.1"/><line x1="1452.0" y1="774.0" x2="1452.0" y2="810.0" stroke="url(#silver)" stroke-width="1.1"/></g>
  <g class="glint" style="animation-delay:2.0s"><circle cx="800.0" cy="500.0" r="3.80" fill="url(#gold)" stroke="none"/><line x1="776.0" y1="500.0" x2="824.0" y2="500.0" stroke="url(#gold)" stroke-width="1.1"/><line x1="800.0" y1="476.0" x2="800.0" y2="524.0" stroke="url(#gold)" stroke-width="1.1"/></g>
  <g class="glint" style="animation-delay:1.6s"><circle cx="1400.0" cy="232.0" r="2.90" fill="url(#gold)" stroke="none"/><line x1="1384.0" y1="232.0" x2="1416.0" y2="232.0" stroke="url(#gold)" stroke-width="1.1"/><line x1="1400.0" y1="216.0" x2="1400.0" y2="248.0" stroke="url(#gold)" stroke-width="1.1"/></g>
  <g class="glint" style="animation-delay:2.6s"><circle cx="184.0" cy="566.0" r="2.90" fill="url(#silver)" stroke="none"/><line x1="168.0" y1="566.0" x2="200.0" y2="566.0" stroke="url(#silver)" stroke-width="1.1"/><line x1="184.0" y1="550.0" x2="184.0" y2="582.0" stroke="url(#silver)" stroke-width="1.1"/></g>
  <g class="glint" style="animation-delay:2.0s"><circle cx="560.0" cy="980.0" r="2.60" fill="url(#gold)" stroke="none"/><line x1="545.0" y1="980.0" x2="575.0" y2="980.0" stroke="url(#gold)" stroke-width="1.1"/><line x1="560.0" y1="965.0" x2="560.0" y2="995.0" stroke="url(#gold)" stroke-width="1.1"/></g>
  <g class="glint" style="animation-delay:2.0s"><circle cx="1290.0" cy="770.0" r="2.90" fill="url(#gold)" stroke="none"/><line x1="1274.0" y1="770.0" x2="1306.0" y2="770.0" stroke="url(#gold)" stroke-width="1.1"/><line x1="1290.0" y1="754.0" x2="1290.0" y2="786.0" stroke="url(#gold)" stroke-width="1.1"/></g>
</svg>